<svg height="512" viewBox="0 0 56 56" width="512" xmlns="http://www.w3.org/2000/svg"><g id="032---Improved-Mental-Health"><path id="Shape" d="m44.81 21.94c-.8873349 1.2611246-2.1005112 2.2575883-3.51 2.883-1.3958637.6607309-2.2898208 2.0626887-2.3 3.607v1.47c.026969 2.1575554-1.4654872 4.0372232-3.573 4.5-1.3267435.2815811-2.7096912-.0510918-3.7632268-.9052574-1.0535357-.8541656-1.6649554-2.138448-1.6637732-3.4947426-.0044117-1.6589284-1.3510661-3.0011089-3.01-3-8.359 0-17.99-1.075-17.99-9.5 0-9.3 13.223-18.374 26.216-12.73.5556368-1.14371807 1.2886957-2.19234329 2.172-3.107-6.117-2.6-11.647-1.72-18.7-.282-4.022.8-7.026 2.234-8.931 4.256-1.57968433 1.69232868-2.80082469 3.68663117-3.59 5.863-.34780203 1.0198511-.62971611 2.0609958-.844 3.117-.5 2.2-1.828 4.233-1.734 4.857.115.849 2.267 1.626 2.281 3.551-.01292908.4734355-.14573716.9358553-.386 1.344-1.24412316 2.6356309-2.77252772 5.1274199-4.558 7.431-.763.932-.926 1.3-.926 1.45.17688793.1749246.36860547.3341873.573.476.854.643 2.791 1.1 3.1 2.752.15778338 1.2325262-.17514644 2.4776909-.927 3.467 1.2.963 1.535 1.021 1.615 1.6s-.3.755-.589 1.37c.909.538 1.752.981 2.056 2.165.463 1.874-.746 2.339.025 4.527.21007229.9256341 1.11390195 1.5199452 2.047 1.346 4.072-.84 10.451-3.32 12.8-4.057 4.134-1.318 4.974-2.817 4.95-3.843-.0129787-.5522847.4242153-1.0105213.9765-1.0235s1.0105213.4242153 1.0235.9765c.059 2.486-2.076 4.436-6.345 5.8-.292.092-2.078.718-2.334.808 1.6603673 1.8109091 2.8659141 3.990971 3.517 6.36 24.567 0 22.648.077 22.54-.142-1.992-3.03-2.828-7.138-3.26-10.7-.392366-3.3438538.1100828-6.731932 1.456-9.818 2.208-5.025 6.546-7.162 6.765-14.01-1.657456.5949222-3.4268462.8122097-5.179.636z"/><path id="Shape" d="m26 12.5v-2.5h-2v2.5c0 .8284271-.6715729 1.5-1.5 1.5h-2.5v2h2.5c.8284271 0 1.5.6715729 1.5 1.5v2.5h2v-2.5c0-.8284271.6715729-1.5 1.5-1.5h2.5v-2h-2.5c-.8284271 0-1.5-.6715729-1.5-1.5z"/><path id="Shape" d="m46 0c-5.5228475 0-10 4.4771525-10 10s4.4771525 10 10 10 10-4.4771525 10-10c-.0060624-5.52033443-4.4796656-9.99393763-10-10zm4.8 6.6-6 8c-.173952.2318622-.4399517.3768378-.7290848.3973668s-.5729481-.0854086-.7779152-.2903668l-2-2c-.3789722-.3923789-.3735524-1.0160848.0121814-1.4018186s1.0094397-.3911536 1.4018186-.0121814l1.185 1.185 5.308-7.078c.3313708-.4418278.9581722-.53137085 1.4-.2s.5313708.9581722.2 1.4z"/><path id="Shape" d="m11 17.5c0 6.943 9.017 7.5 15.97 7.5 1.3300625-.0039842 2.6072312.5205631 3.5505405 1.4582463.9433092.9376832 1.4754872 2.2116912 1.4794595 3.5417537-.0020224.7556787.3389643 1.4714541.9270556 1.9460097.5880913.4745557 1.3597508.6566215 2.0979444.4949903 1.1778418-.2711108 2.0029517-1.3326825 1.975-2.541v-1.47c.0119317-2.3155334 1.349402-4.4194935 3.441-5.413.8053073-.3712494 1.5367652-.8852011 2.159-1.517-6.3385462-1.8720088-9.9665664-8.5206209-8.111-14.864-11.437-5.021-23.489 2.689-23.489 10.864zm21-1.5c0 1.1045695-.8954305 2-2 2h-2v2c0 1.1045695-.8954305 2-2 2h-2c-1.1045695 0-2-.8954305-2-2v-2h-2c-1.1045695 0-2-.8954305-2-2v-2c0-1.1045695.8954305-2 2-2h2v-2c0-1.1045695.8954305-2 2-2h2c1.1045695 0 2 .8954305 2 2v2h2c1.1045695 0 2 .8954305 2 2z"/></g></svg>